<?xml version="1.0" standalone="no"?>
<!DOCTYPE svg PUBLIC "-//W3C//DTD SVG 20010904//EN"
 "http://www.w3.org/TR/2001/REC-SVG-20010904/DTD/svg10.dtd">
<svg version="1.0" xmlns="http://www.w3.org/2000/svg"
 width="901.000000pt" height="733.000000pt" viewBox="0 0 901.000000 733.000000"
 preserveAspectRatio="xMidYMid meet">

<g transform="translate(0.000000,733.000000) scale(0.100000,-0.100000)"
fill="#000000" stroke="none">
<path d="M0 3665 l0 -3665 4505 0 4505 0 0 3665 0 3665 -4505 0 -4505 0 0
-3665z m4636 3415 c342 -27 648 -119 968 -293 444 -240 822 -629 1074 -1107
57 -108 148 -318 140 -325 -2 -2 -285 -6 -630 -10 l-628 -8 0 -22 c0 -17 7
-24 31 -29 17 -3 307 -6 644 -6 l612 0 26 -92 c44 -161 87 -432 87 -555 l0
-22 448 -3 447 -3 53 -30 c72 -39 135 -112 180 -206 l37 -77 53 -6 c135 -16
224 -154 264 -405 l12 -81 50 0 c70 0 124 -34 162 -102 29 -52 29 -55 29 -213
0 -145 -2 -164 -22 -200 -41 -77 -105 -115 -192 -115 -57 0 -48 17 -71 -145
-26 -188 -83 -279 -199 -320 -24 -8 -66 -15 -93 -15 l-49 0 -20 -47 c-77 -182
-148 -272 -257 -325 l-67 -33 -495 0 -495 0 -46 23 c-26 12 -70 47 -99 76
l-52 53 -47 -31 c-69 -47 -210 -114 -256 -122 l-40 -7 50 54 c66 70 131 164
185 264 54 99 98 165 110 165 6 0 10 -12 10 -27 0 -74 57 -216 110 -277 69
-78 52 -76 568 -76 401 0 465 2 498 16 97 40 163 126 224 287 l39 102 93 5
c51 3 105 12 120 19 65 33 96 123 120 344 l12 117 92 0 c79 0 95 3 119 22 44
34 55 75 54 195 -1 182 -27 218 -159 218 l-79 -1 -6 66 c-18 173 -65 322 -121
380 -31 32 -39 35 -104 38 l-70 4 -50 104 c-28 57 -66 122 -86 144 -65 72 -54
71 -646 68 l-526 -3 -43 -30 c-100 -70 -192 -336 -234 -675 -8 -69 -17 -140
-20 -157 l-6 -33 -64 0 c-52 0 -65 3 -65 15 0 28 -50 139 -87 193 l-36 53 34
102 c32 97 34 108 33 242 0 124 -3 149 -27 221 -34 102 -86 183 -168 258 -76
70 -199 133 -279 143 -40 4 -59 12 -69 27 -85 122 -305 278 -468 331 l-52 17
6 51 c3 29 7 54 9 56 2 2 32 -18 68 -43 36 -26 64 -41 61 -34 -2 7 -18 60 -36
118 -17 58 -40 123 -50 144 -10 22 -17 41 -14 44 2 2 21 -13 41 -34 l37 -39
-8 60 c-14 124 -68 303 -115 382 -11 19 -20 36 -20 38 0 2 26 -12 57 -31 31
-19 61 -34 65 -34 11 0 -36 70 -119 178 l-65 83 11 50 c18 81 14 236 -8 322
-20 75 -78 227 -88 227 -3 0 -37 -29 -77 -64 -39 -34 -114 -96 -166 -135 -90
-69 -97 -72 -135 -66 -187 30 -219 31 -337 8 l-87 -16 -58 43 c-73 55 -222
180 -247 209 -36 40 -41 34 -97 -127 -43 -126 -55 -233 -40 -357 l13 -103 -64
-78 c-79 -98 -132 -174 -121 -174 5 0 17 6 28 13 11 7 37 24 58 36 l39 24 -40
-79 c-46 -91 -79 -214 -88 -329 l-6 -80 37 43 c21 24 39 41 42 38 2 -2 -5 -23
-17 -47 -30 -58 -90 -241 -90 -274 0 -3 28 17 62 45 34 27 62 49 63 47 2 -1 5
-30 9 -63 l7 -62 -34 -6 c-83 -16 -303 -146 -390 -230 -26 -26 -59 -65 -74
-87 -21 -31 -32 -39 -57 -39 -73 0 -183 -44 -261 -103 -108 -82 -201 -232
-230 -372 -29 -137 -13 -307 41 -439 l23 -58 -28 -42 c-37 -54 -60 -99 -81
-160 l-17 -50 -65 -2 -65 -2 -12 131 c-34 375 -123 657 -229 732 l-44 30 -497
0 -498 0 -49 -30 c-44 -27 -55 -43 -109 -146 -33 -64 -64 -121 -68 -127 -5 -7
-31 -12 -59 -12 -100 0 -145 -44 -188 -185 -17 -57 -49 -236 -50 -281 0 -7
-32 -13 -83 -16 -140 -9 -155 -28 -157 -194 -2 -181 -3 -173 34 -210 34 -34
34 -34 128 -34 l94 0 12 -121 c15 -146 36 -244 63 -287 27 -45 88 -72 166 -72
l62 0 17 -57 c28 -101 83 -203 138 -259 95 -94 60 -89 566 -92 334 -2 454 0
483 9 82 27 156 149 188 309 l12 63 20 -24 c10 -13 48 -73 84 -133 66 -112
135 -207 207 -285 l41 -44 -49 7 c-52 6 -210 77 -265 119 l-33 26 -48 -48
c-25 -27 -67 -59 -91 -72 l-44 -24 -480 0 -480 0 -66 32 c-109 54 -188 148
-255 306 -22 52 -33 67 -49 67 -45 0 -123 31 -162 65 -71 61 -95 133 -129 383
-5 31 -7 32 -50 32 -83 0 -155 45 -197 125 -18 34 -22 61 -25 172 -4 151 9
211 60 269 41 46 62 56 133 63 l59 6 12 75 c25 158 88 309 149 355 43 33 98
55 138 55 31 0 35 4 46 40 15 51 101 179 138 206 16 12 49 32 73 45 45 24 46
24 443 27 l397 3 0 54 c0 120 40 352 101 578 l10 37 583 0 c321 0 598 3 615 6
24 5 31 12 31 30 l0 24 -257 2 c-142 1 -410 2 -595 3 -186 1 -340 4 -344 8
-21 20 163 395 280 571 110 165 185 256 341 412 149 150 241 225 410 336 399
262 847 406 1291 417 34 0 119 -4 190 -9z m393 -638 c6 -29 11 -72 10 -95 -1
-41 -1 -40 -18 24 -9 36 -26 80 -38 99 l-21 33 -21 -44 c-11 -24 -20 -40 -21
-36 0 4 -15 -6 -32 -22 -18 -17 -45 -36 -60 -42 -16 -6 -28 -15 -28 -19 0 -7
-24 -14 -97 -27 -18 -3 -33 -8 -33 -12 0 -3 -21 -7 -46 -8 -26 -1 -45 -1 -43
1 2 2 32 15 66 29 75 30 200 124 273 205 l55 59 21 -46 c12 -25 26 -70 33 -99z
m-1030 87 c66 -77 186 -168 278 -211 45 -21 85 -43 88 -48 9 -14 -9 -12 -23 2
-8 8 -15 8 -27 -2 -12 -10 -19 -10 -27 -2 -7 7 -20 12 -31 12 -10 0 -15 5 -12
10 3 6 -1 10 -10 10 -9 0 -50 16 -92 35 -42 19 -78 35 -81 35 -3 0 3 -10 14
-22 l19 -23 -22 19 c-12 10 -21 23 -20 30 1 6 -4 10 -11 8 -8 -1 -11 2 -8 7 3
5 -2 15 -11 22 -9 8 -29 31 -44 53 -25 33 -29 36 -34 20 -4 -11 -13 -34 -22
-51 -9 -18 -19 -61 -22 -95 l-7 -63 -8 41 c-4 23 -3 66 3 95 11 61 49 169 59
169 4 0 27 -23 51 -51z m560 -153 c5 -3 -4 -20 -20 -37 -16 -17 -29 -35 -29
-39 0 -4 -7 -11 -16 -14 -8 -3 -13 -2 -10 2 3 5 -20 21 -50 37 -29 16 -54 32
-54 37 0 4 -8 9 -17 9 -10 1 -2 5 17 10 36 8 163 4 179 -5z m206 -89 c-9 -5
-22 -6 -30 -3 -7 2 -19 -2 -25 -9 -12 -15 -30 -12 -30 5 0 11 25 17 68 16 24
0 28 -2 17 -9z m-525 -34 c29 -15 58 -39 66 -54 7 -15 24 -35 36 -43 12 -9 19
-16 15 -16 -4 0 2 -15 13 -32 29 -48 25 -69 -6 -33 -17 19 -24 23 -20 11 5
-15 4 -17 -7 -8 -8 7 -16 9 -19 7 -3 -3 -18 -1 -33 5 -26 10 -27 9 -14 -7 8
-10 19 -21 24 -25 6 -5 5 -8 -3 -8 -7 0 -24 12 -37 26 -20 21 -29 25 -55 19
l-32 -7 26 -27 c14 -15 26 -33 26 -40 0 -7 5 -9 10 -6 6 3 10 1 10 -5 0 -6 4
-9 9 -5 11 6 46 -40 61 -81 9 -27 9 -28 -5 -10 -22 29 -18 12 11 -47 l26 -52
-38 35 c-21 19 -42 39 -45 44 -4 5 -12 5 -19 1 -9 -5 -11 -4 -6 3 8 13 6 13
-34 17 -45 3 -90 16 -90 26 0 12 1 12 45 -7 59 -24 54 -7 -6 21 -100 46 -203
31 -317 -47 l-47 -32 29 39 c83 114 134 144 238 145 43 0 68 4 71 13 4 7 6 6
6 -4 1 -9 8 -20 17 -23 14 -5 15 -4 4 9 -10 12 -10 15 1 15 10 1 8 5 -5 15
-18 13 -16 15 23 21 22 4 41 9 41 12 0 3 -10 17 -22 30 l-23 25 31 -6 c18 -3
44 -9 59 -13 20 -5 26 -4 21 5 -4 6 -14 11 -22 11 -9 0 -14 6 -11 13 2 6 -3
18 -12 24 -14 11 -14 14 -1 23 11 7 11 10 2 10 -7 0 -22 9 -34 20 -29 27 -20
25 42 -7z m430 -64 c0 -5 -7 -9 -15 -9 -8 0 -15 -4 -15 -10 0 -5 9 -10 20 -10
11 0 20 -4 20 -10 0 -5 9 -10 19 -10 11 0 27 -7 35 -16 9 -8 31 -18 50 -21 28
-4 32 -8 23 -18 -7 -8 -16 -10 -21 -4 -6 5 -17 9 -25 9 -14 0 -14 -1 -1 -10
13 -9 11 -13 -9 -31 -13 -11 -29 -18 -35 -15 -37 15 -50 17 -27 3 23 -14 23
-14 3 -19 -22 -6 -32 8 -32 43 0 28 -13 23 -46 -16 -27 -33 -54 -49 -37 -22
11 17 11 30 -1 45 -7 11 -11 11 -17 0 -6 -9 -9 -9 -9 -1 0 6 7 19 16 27 8 9
11 16 6 16 -5 0 -15 -7 -22 -15 -7 -9 -15 -13 -18 -10 -9 9 43 75 70 87 15 7
22 15 17 19 -6 3 4 6 20 7 17 0 31 -4 31 -9z m90 6 c0 -2 -10 -10 -22 -16 -21
-11 -22 -11 -9 4 13 16 31 23 31 12z m55 -8 c-11 -7 -33 -19 -49 -26 -26 -11
-28 -10 -16 3 7 9 19 16 26 16 8 0 14 5 14 10 0 6 10 10 22 10 22 0 22 0 3
-13z m-671 -47 c7 0 13 -7 13 -15 0 -8 -4 -15 -9 -15 -4 0 -8 4 -8 8 0 5 -10
14 -22 21 -14 7 -16 9 -5 6 10 -3 24 -5 31 -5z m649 -7 c-7 -2 -21 -2 -30 0
-10 3 -4 5 12 5 17 0 24 -2 18 -5z m-459 -69 c3 -8 2 -12 -4 -9 -6 3 -10 10
-10 16 0 14 7 11 14 -7z m619 -16 c45 -14 126 -87 152 -139 l18 -34 -24 22
c-13 12 -55 36 -92 53 -60 29 -75 32 -138 28 -44 -2 -73 -9 -78 -17 -5 -8 -14
-10 -21 -6 -9 5 -11 4 -6 -3 4 -7 18 -10 34 -6 15 4 24 3 19 -2 -4 -4 -18 -9
-30 -11 -12 -2 -23 -8 -25 -13 -2 -6 -11 -6 -23 0 -15 8 -17 7 -13 -4 7 -18
-8 -27 -26 -15 -10 6 -11 9 -2 9 6 0 12 5 12 10 0 7 -7 7 -20 0 -11 -6 -17
-16 -14 -22 4 -6 3 -8 -3 -5 -14 9 -63 -30 -63 -49 0 -8 -7 -14 -15 -14 -19 0
-19 3 5 51 71 139 217 208 353 167z m-278 -178 c-3 -5 -12 -10 -18 -10 -7 0
-6 4 3 10 19 12 23 12 15 0z m-820 -41 c-4 -12 -3 -24 3 -28 6 -4 4 -11 -5
-20 -12 -11 -14 -11 -12 0 4 31 -3 43 -11 21 -5 -12 -6 -30 -3 -39 4 -11 3
-14 -5 -9 -16 10 -15 22 4 62 18 37 39 47 29 13z m371 -30 c67 -38 74 -49 31
-49 -38 0 -82 29 -90 60 -7 26 -4 26 59 -11z m524 22 c0 -36 -46 -71 -95 -71
-38 0 -31 13 28 47 57 34 67 38 67 24z m327 -7 c-3 -3 -12 -4 -19 -1 -8 3 -5
6 6 6 11 1 17 -2 13 -5z m20 -26 c-3 -8 -6 -5 -6 6 -1 11 2 17 5 13 3 -3 4
-12 1 -19z m-1 -40 c28 -30 17 -30 -18 0 -16 13 -24 32 -15 32 2 0 16 -14 33
-32z m-1299 -10 c-3 -8 -6 -5 -6 6 -1 11 2 17 5 13 3 -3 4 -12 1 -19z m98 -9
c-2 -12 -10 -27 -16 -35 -7 -8 -9 -18 -5 -21 4 -4 12 -1 17 7 9 12 10 11 5 -4
-4 -11 -2 -22 4 -26 7 -5 9 -21 4 -45 -7 -38 -7 -38 -19 -14 -24 46 -28 88
-10 124 18 40 26 45 20 14z m1138 -7 c-2 -10 1 -31 8 -47 7 -17 11 -36 10 -42
-2 -14 15 -18 22 -5 2 4 3 2 1 -4 -1 -6 3 -17 9 -24 7 -7 0 -5 -14 4 l-26 16
-6 -42 c-6 -44 -31 -103 -48 -114 -6 -3 -7 4 -3 21 l6 26 -31 -32 c-18 -17
-35 -29 -38 -25 -3 3 4 14 15 25 12 10 22 23 22 30 0 6 5 11 10 11 6 0 10 7
10 16 0 10 6 14 15 10 11 -4 15 1 15 17 0 13 7 32 15 43 16 21 20 48 6 39 -5
-3 -13 0 -17 6 -4 8 -3 9 4 5 8 -5 10 2 6 23 -4 17 -4 37 -1 46 9 21 16 19 10
-3z m-1098 -70 c-9 -9 -24 48 -18 65 5 13 9 8 15 -21 5 -21 6 -41 3 -44z
m1132 26 l12 -33 -19 24 c-21 24 -26 41 -12 41 4 0 13 -15 19 -32z m-276 -52
c-17 -22 -42 -63 -56 -91 -14 -27 -25 -46 -25 -41 0 5 -8 2 -19 -8 -17 -16
-19 -15 -32 31 -12 43 -14 46 -20 23 -6 -21 -7 -19 -8 13 -1 23 3 36 9 32 5
-3 15 5 22 19 7 17 19 26 34 26 13 0 26 5 29 10 3 6 11 10 16 10 6 0 7 -4 4
-10 -13 -22 13 -8 40 20 41 42 45 18 6 -34z m-662 10 c9 -10 26 -13 57 -10 24
2 43 1 42 -3 -2 -5 1 -9 5 -10 5 -1 17 -12 28 -24 16 -19 19 -31 13 -64 -8
-51 -23 -80 -24 -46 0 23 -25 61 -40 61 -3 0 -5 -17 -3 -37 l3 -38 -15 38 c-8
21 -29 57 -47 80 -17 23 -36 48 -41 55 -13 17 8 16 22 -2z m46 4 c3 -5 1 -10
-4 -10 -6 0 -11 5 -11 10 0 6 2 10 4 10 3 0 8 -4 11 -10z m-315 -11 c0 -4 -11
-20 -25 -35 -14 -15 -25 -22 -25 -16 0 6 7 18 16 26 8 9 13 20 10 24 -3 5 1 9
9 9 8 0 15 -4 15 -8z m525 -127 c3 -3 5 8 5 25 0 44 11 93 21 93 5 0 9 -6 9
-14 0 -16 37 -28 46 -15 3 5 14 9 25 9 11 0 19 7 19 18 0 34 20 -11 21 -48 l1
-35 10 29 c8 21 13 25 19 15 7 -11 9 -9 9 6 2 28 68 -197 82 -275 6 -36 8 -78
4 -93 -9 -38 -41 -67 -73 -67 l-28 0 30 25 30 25 -37 -17 c-46 -21 -60 -11
-25 18 24 18 27 28 27 79 0 93 4 90 -121 90 -108 0 -110 0 -119 -26 -19 -49
-12 -110 16 -143 25 -30 25 -31 4 -31 -12 0 -31 5 -43 11 -21 10 -21 9 2 -10
18 -17 20 -21 7 -21 -9 0 -29 12 -43 26 -24 24 -25 30 -20 97 3 40 21 124 40
187 19 63 38 129 42 145 7 27 9 24 21 -34 7 -35 16 -66 19 -69z m-453 4 l-5
-39 -14 33 c-8 20 -11 46 -7 63 l6 29 12 -24 c7 -13 10 -41 8 -62z m36 -2 c7
-14 8 -23 2 -19 -15 9 -32 45 -22 45 5 0 14 -12 20 -26z m-8 -88 c0 -12 -5 -7
-19 24 -11 24 -11 24 3 6 9 -11 16 -24 16 -30z m580 -83 c13 -13 -46 -43 -85
-43 -39 0 -95 28 -95 48 0 8 172 3 180 -5z m505 -67 c-16 -54 -45 -103 -74
-130 -11 -10 1 22 32 83 28 55 52 99 54 98 1 -2 -4 -25 -12 -51z m-1117 -72
c5 -6 13 -21 16 -35 9 -31 -6 -11 -35 46 -11 22 -13 31 -5 20 9 -11 19 -25 24
-31z m-34 -20 c3 -8 2 -12 -4 -9 -6 3 -10 10 -10 16 0 14 7 11 14 -7z m-124
-109 c0 -7 -6 -18 -12 -22 -7 -4 -22 -19 -33 -32 l-20 -24 28 18 c37 23 34 12
-5 -26 l-33 -31 33 24 c33 23 34 23 48 3 14 -19 13 -21 -23 -37 -21 -10 -46
-18 -56 -18 -10 0 -44 -11 -77 -25 -33 -14 -68 -26 -78 -28 -10 -1 -42 -14
-72 -29 -66 -31 -110 -42 -110 -28 0 20 190 167 282 218 96 53 128 63 128 37z
m614 3 c-5 -7 -2 -9 9 -5 11 4 14 2 11 -8 -3 -7 2 -15 13 -18 14 -4 14 -5 2
-6 -23 -1 -64 35 -47 42 19 8 20 8 12 -5z m159 6 c3 -3 3 -12 0 -20 -6 -16
-32 -18 -53 -3 -12 8 -10 9 10 7 16 -2 24 2 23 10 -3 12 9 16 20 6z m725 -39
c104 -56 316 -215 302 -228 -3 -2 -27 -1 -55 3 -27 4 -43 8 -35 9 8 0 -6 12
-32 26 -52 28 -63 30 -52 14 4 -8 0 -8 -15 0 -11 7 -21 14 -21 17 0 3 5 2 12
-2 7 -5 8 -3 4 5 -5 7 -14 10 -22 7 -7 -3 -28 1 -46 8 -18 7 -42 17 -53 21
-11 5 -24 7 -29 6 -5 -1 -4 5 4 13 14 18 0 22 -17 5 -8 -8 -13 -7 -18 2 -5 7
-4 10 2 6 6 -4 13 0 16 8 4 9 1 12 -8 9 -15 -6 -35 24 -28 44 3 6 1 12 -4 12
-5 0 -15 -6 -23 -12 -12 -11 -12 -10 -1 5 7 9 17 17 20 17 13 0 108 -99 102
-106 -3 -4 -1 -4 6 0 6 3 14 2 18 -4 3 -5 16 -15 28 -21 12 -6 -14 22 -57 62
-43 41 -86 77 -95 81 -11 5 -12 7 -2 7 11 1 11 4 1 16 -23 27 11 17 98 -30z
m-778 -5 c12 -8 11 -10 -7 -10 -13 0 -23 5 -23 10 0 13 11 13 30 0z m-670 -60
c0 -5 -4 -10 -10 -10 -5 0 -10 5 -10 10 0 6 5 10 10 10 6 0 10 -4 10 -10z
m-295 -140 c3 -6 -1 -7 -9 -4 -18 7 -21 14 -7 14 6 0 13 -4 16 -10z m1915 0
c0 -5 -2 -10 -4 -10 -3 0 -8 5 -11 10 -3 6 -1 10 4 10 6 0 11 -4 11 -10z
m-1998 -132 l103 -12 -110 -17 c-101 -16 -211 -46 -202 -55 2 -2 53 7 113 21
150 34 161 31 65 -15 -104 -50 -221 -129 -286 -191 -55 -53 -58 -77 -4 -29 33
30 119 79 149 85 8 2 24 7 35 10 l20 8 -20 -17 c-20 -17 -19 -17 10 -13 l30 5
-31 -26 c-78 -68 -91 -79 -127 -101 -20 -12 -35 -27 -32 -31 6 -10 29 -4 63
18 12 8 25 12 29 8 3 -3 1 -6 -5 -6 -7 0 -12 -6 -12 -14 0 -7 -24 -29 -52 -48
-55 -36 -125 -101 -191 -176 l-37 -42 0 45 c0 45 -19 66 -21 23 0 -13 -3 -18
-6 -11 -3 8 -13 3 -29 -14 -19 -21 -24 -23 -24 -9 0 10 10 27 23 37 l22 20
-24 -12 c-22 -10 -23 -9 -16 7 15 38 15 58 -1 24 -15 -33 -15 -73 1 -150 2
-14 -2 -5 -11 20 -22 66 -29 223 -11 287 8 29 10 50 6 48 -8 -6 -46 -116 -52
-155 -4 -22 -4 -21 -6 6 -5 131 84 314 191 391 125 89 226 107 450 81z m743
-6 c12 -6 -9 -11 -72 -15 -48 -4 -140 -16 -203 -27 -63 -11 -117 -20 -120 -19
-15 1 83 45 135 61 45 14 82 17 152 14 50 -2 99 -8 108 -14z m884 -22 c39 -18
70 -34 69 -35 -2 -2 -48 6 -103 16 -55 10 -143 24 -195 31 -86 11 -91 13 -55
19 22 4 79 6 126 5 73 -3 98 -8 158 -36z m702 24 c185 -54 314 -195 353 -386
22 -108 19 -125 -8 -43 -20 61 -55 140 -55 125 -1 -3 6 -27 14 -54 14 -47 22
-226 9 -226 -3 0 -12 7 -20 15 -11 11 -20 12 -34 5 -22 -12 -30 6 -25 60 3 32
2 33 -11 16 -8 -11 -14 -23 -14 -28 0 -20 -19 -5 -31 25 l-13 32 -3 -27 c-3
-16 -9 -28 -14 -28 -12 0 11 -41 34 -58 9 -7 17 -18 17 -24 0 -6 -13 3 -29 19
-31 33 -135 129 -194 180 -45 38 -47 49 -6 28 17 -9 38 -15 47 -13 11 2 -5 18
-46 49 -59 44 -60 46 -31 46 18 0 25 -3 17 -8 -15 -9 -13 -11 30 -33 32 -17
60 -14 33 3 -9 6 -3 10 18 13 18 3 35 0 38 -5 3 -6 1 -7 -5 -3 -7 4 -12 3 -12
-3 0 -5 5 -13 10 -16 6 -3 10 -1 10 5 0 7 7 9 18 6 27 -11 -98 113 -147 145
-25 16 -53 29 -62 29 -10 0 -21 4 -24 10 -3 6 2 8 12 5 10 -3 -22 15 -71 40
-49 24 -92 48 -95 51 -7 8 105 -5 133 -15 12 -5 35 -11 51 -14 23 -5 20 -2
-14 14 -24 11 -85 26 -135 35 -50 8 -95 16 -101 18 -19 6 139 23 221 25 48 0
102 -5 135 -15z m-1596 -89 c70 -9 133 -39 183 -88 23 -22 42 -44 42 -48 0 -3
-21 4 -47 17 -27 13 -61 26 -78 29 -27 6 -25 3 18 -26 26 -17 46 -34 44 -36
-3 -2 -25 1 -51 8 -50 12 -132 6 -181 -15 l-30 -13 51 -6 c96 -11 231 -93 266
-161 9 -18 7 -18 -12 3 -35 36 -105 65 -192 78 -79 12 -486 -72 -520 -108 -10
-10 -18 -20 -18 -21 0 -2 8 -4 18 -5 9 -1 31 -5 47 -8 23 -5 35 -2 49 14 20
22 63 30 50 9 -5 -8 4 -9 32 -4 151 27 238 32 342 20 63 -8 69 -24 8 -24 -25
0 -47 -4 -50 -9 -3 -5 -30 -12 -61 -16 -30 -3 -57 -11 -60 -16 -8 -13 -65 -11
-65 2 0 6 9 8 20 4 11 -4 20 -2 20 4 0 15 -6 14 -113 -9 -111 -24 -168 -40
-185 -53 -7 -6 -15 -7 -19 -3 -3 3 -22 -6 -41 -20 -29 -22 -41 -26 -83 -22
-57 6 -60 7 -63 42 -2 15 -1 24 2 21 3 -3 12 5 20 17 10 18 12 19 7 3 -16 -45
-17 -55 -6 -55 7 0 10 4 7 9 -3 4 1 17 9 27 7 10 12 29 9 40 -4 14 0 23 10 27
11 4 13 1 9 -11 -6 -14 -5 -15 9 -2 8 8 14 20 11 26 -2 7 0 15 6 19 6 3 11 14
11 23 0 15 -2 15 -10 2 -7 -10 -10 -11 -10 -2 0 7 7 15 15 18 8 4 15 13 15 21
0 8 6 13 13 10 7 -3 21 1 32 9 10 8 15 14 9 14 -5 0 1 6 12 13 12 6 50 31 85
55 l63 42 -35 0 c-18 0 -52 -9 -74 -20 l-40 -19 35 5 35 5 -30 -18 c-16 -9
-32 -17 -35 -18 -3 0 -11 -4 -17 -8 -7 -5 -18 -5 -25 -1 -6 4 -8 3 -5 -3 7
-12 -50 -39 -60 -29 -9 9 122 133 165 156 51 26 38 25 -38 -5 -35 -14 -66 -25
-69 -25 -13 1 47 43 100 70 130 67 264 87 444 65z m866 -5 c67 -13 147 -45
208 -83 62 -39 171 -144 171 -164 0 -8 4 -12 9 -8 5 3 12 1 16 -4 9 -16 -38
-3 -67 19 -25 18 -48 26 -48 16 0 -2 -3 -11 -6 -20 -4 -10 -1 -16 8 -16 8 0
20 -11 26 -25 6 -14 18 -25 25 -25 8 0 22 -10 33 -21 l19 -21 -40 21 c-57 30
-61 26 -18 -20 21 -22 48 -57 60 -77 12 -20 27 -45 33 -55 9 -14 6 -19 -15
-27 -55 -21 -80 -22 -168 -10 -75 11 -86 15 -66 23 24 9 24 10 -8 19 -18 5
-33 11 -33 14 0 4 8 3 18 -1 12 -4 14 -3 7 4 -22 22 -265 64 -375 64 -66 1
-81 3 -50 7 43 6 41 6 -35 15 l-80 9 45 8 c25 5 104 7 175 5 105 -4 145 -9
210 -31 84 -27 110 -32 85 -16 -10 7 -11 10 -2 10 7 0 15 -7 19 -15 3 -9 18
-22 34 -31 25 -12 29 -13 29 0 0 8 -6 16 -12 19 -7 2 -13 18 -13 36 0 30 -4
34 -48 51 -26 10 -105 30 -176 44 -160 32 -286 35 -348 7 -23 -11 -44 -17 -47
-14 -3 3 -17 -4 -32 -16 -15 -11 -22 -21 -17 -21 6 0 16 7 23 15 8 10 24 13
46 10 21 -2 32 0 29 5 -4 6 -1 10 4 10 13 0 13 -3 5 -24 -3 -9 -14 -16 -23
-16 -9 0 -22 -5 -29 -12 -6 -6 -26 -12 -45 -13 -19 -1 -39 -5 -46 -9 -27 -17
32 62 71 95 59 49 119 78 192 93 l61 13 -54 18 c-52 17 -104 17 -181 -1 -22
-5 -20 -1 15 31 35 32 37 36 15 30 -14 -4 -46 -18 -73 -31 -42 -21 -46 -21
-37 -5 16 30 71 72 129 99 82 38 241 47 372 22z m599 -155 c0 -3 -11 2 -25 11
-14 9 -22 21 -19 26 6 9 44 -23 44 -37z m121 18 c13 -16 12 -17 -3 -4 -10 7
-18 15 -18 17 0 8 8 3 21 -13z m-77 -22 c6 -10 -24 -25 -32 -16 -3 3 0 5 7 5
7 0 9 5 6 10 -3 6 -2 10 4 10 5 0 12 -4 15 -9z m105 -34 c-2 -1 -13 -9 -24
-17 -19 -14 -19 -14 -6 3 7 9 18 17 24 17 6 0 8 -1 6 -3z m-4379 -40 c0 -5
-13 -39 -30 -77 -34 -78 -39 -104 -9 -47 11 21 42 60 68 88 43 45 51 49 94 49
26 0 47 -3 47 -6 0 -3 -11 -15 -25 -26 -30 -23 -32 -38 -5 -31 25 7 25 7 -5
-61 -26 -58 -70 -212 -78 -276 -29 -204 -34 -780 -8 -905 6 -27 13 -66 16 -85
15 -108 -44 112 -70 260 -24 139 -37 334 -33 527 1 105 0 187 -3 181 -4 -5 -9
-3 -12 6 -8 21 -27 20 -27 -1 0 -15 2 -16 10 -3 6 9 10 10 10 3 0 -7 -8 -16
-17 -22 -14 -7 -15 -12 -5 -24 7 -8 10 -23 7 -33 -3 -11 1 -6 8 10 10 20 16
24 20 14 3 -8 1 -21 -4 -29 -5 -8 -7 -41 -5 -74 2 -33 2 -48 -1 -33 -3 18 -9
25 -19 21 -8 -3 -14 -12 -14 -20 0 -8 5 -11 12 -7 8 5 9 -2 5 -24 -4 -19 -2
-32 3 -32 6 0 10 5 10 12 0 6 3 9 6 5 3 -3 -1 -16 -10 -29 -15 -21 -16 -21
-18 -3 0 11 -1 28 0 38 1 9 -2 17 -7 17 -15 0 -20 -27 -8 -39 8 -8 8 -14 -1
-23 -9 -9 -12 -8 -12 4 0 9 -4 20 -10 23 -20 12 -9 -16 15 -40 16 -17 19 -25
10 -25 -8 0 -12 -6 -9 -14 8 -20 -14 -94 -37 -125 -19 -26 -37 -167 -40 -306
l-1 -60 -13 65 c-7 36 -16 101 -21 145 -4 44 -9 71 -12 60 -10 -48 -19 -30
-25 46 -8 105 17 423 43 542 42 193 105 363 137 369 32 6 73 3 73 -5z m419 4
c10 -6 4 -12 -23 -21 -42 -14 -38 -34 6 -28 34 5 36 20 -16 -152 -89 -297
-101 -837 -26 -1155 5 -22 21 -94 35 -160 29 -135 68 -240 126 -341 l39 -69
-41 44 c-43 48 -114 184 -104 201 3 5 2 10 -3 10 -18 0 -91 287 -112 440 -18
139 -38 418 -36 528 0 56 -2 102 -6 102 -5 0 -8 -7 -8 -15 0 -8 -4 -15 -10
-15 -5 0 -10 -8 -10 -17 0 -15 2 -16 10 -3 13 21 13 -90 0 -125 -5 -14 -16
-79 -25 -143 -8 -64 -21 -137 -29 -162 l-14 -45 -3 45 -2 45 -7 -45 c-4 -29
-8 -35 -8 -18 -1 15 -7 30 -13 33 -7 5 -8 -6 -4 -32 5 -33 4 -35 -5 -13 -34
77 -36 434 -5 645 31 209 103 409 162 454 29 21 106 29 132 12z m140 -53 c-81
-160 -149 -492 -149 -730 0 -37 -4 -70 -10 -73 -13 -8 -13 161 1 301 19 196
89 440 150 524 16 22 31 40 34 40 3 0 -9 -28 -26 -62z m5063 -23 c39 -80 87
-246 81 -282 -3 -20 -2 -24 5 -14 17 24 34 -106 39 -314 3 -110 3 -197 -1
-194 -6 5 -30 314 -31 396 0 22 -3 39 -6 37 -3 -2 -12 29 -19 69 -19 109 -68
266 -101 324 -33 60 -36 71 -13 52 9 -7 29 -40 46 -74z m252 64 c107 -84 196
-561 167 -891 -6 -73 -19 -160 -27 -193 -8 -33 -19 -75 -24 -93 -13 -51 -20
-50 -17 1 1 26 0 47 -3 47 -4 0 -12 35 -19 78 -7 42 -17 96 -21 119 -4 24 -4
45 -1 48 3 3 4 27 3 53 -2 37 0 44 9 32 9 -13 10 -12 5 3 -3 10 -6 24 -6 30 0
7 -9 -6 -19 -28 l-18 -40 -2 105 c-1 72 2 100 9 90 5 -8 10 -10 10 -4 0 6 -7
17 -15 24 -13 11 -15 4 -15 -56 0 -38 -5 -132 -10 -209 -33 -462 -137 -851
-265 -991 -45 -49 -52 -42 -12 14 65 89 91 153 142 347 100 385 120 802 54
1184 -16 96 -52 232 -75 289 -4 8 8 12 41 12 41 0 46 2 35 15 -7 8 -29 15 -49
15 -27 0 -32 3 -21 10 28 18 115 12 144 -11z m297 -16 c23 -21 57 -60 75 -88
19 -27 34 -47 34 -43 0 3 -13 39 -30 79 -16 41 -30 75 -30 77 0 1 20 2 44 2
l43 0 31 -72 c40 -96 78 -231 98 -343 25 -145 42 -299 34 -310 -4 -5 -10 -44
-12 -85 -3 -41 -2 -64 2 -50 4 14 6 -14 5 -65 -3 -109 -3 -108 -14 -101 -12 8
-21 -17 -22 -57 0 -18 -6 -59 -14 -92 l-13 -60 -2 120 c0 73 -8 155 -19 210
l-19 90 -2 -90 c-1 -65 -4 -84 -11 -70 -8 16 -8 15 -5 -10 5 -30 -23 -239 -31
-231 -2 2 1 44 8 94 11 87 7 162 -10 162 -4 0 -6 15 -4 33 4 25 2 29 -7 17 -8
-12 -10 -10 -5 10 2 14 1 41 -4 60 -5 19 -9 29 -10 22 -1 -7 -5 -10 -11 -7 -5
3 -8 24 -6 46 3 32 1 39 -10 35 -9 -4 -12 -1 -9 5 4 6 8 30 9 55 1 44 1 44
-16 21 -15 -19 -18 -20 -18 -4 0 10 -4 16 -8 13 -5 -3 -12 -59 -16 -124 -7
-135 -40 -372 -55 -400 -6 -11 -8 -21 -6 -24 6 -6 -42 -194 -55 -215 -10 -16
-11 -15 -6 7 38 161 41 207 41 545 0 286 -3 360 -19 464 -15 96 -17 127 -8
142 7 10 12 24 12 31 0 9 -3 8 -10 -2 -5 -8 -10 -10 -10 -4 0 5 5 15 10 20 8
8 7 19 -1 38 -15 33 -30 16 -23 -29 4 -25 -34 89 -40 120 -1 6 -5 16 -9 23 -6
8 0 12 20 12 l28 1 -35 29 -34 30 67 0 c63 0 69 -2 108 -37z m-3386 -23 c3 -5
15 -10 26 -10 11 0 18 4 15 9 -9 13 34 0 69 -21 21 -12 25 -18 13 -18 -10 0
-18 -5 -18 -11 0 -6 7 -9 15 -5 8 3 15 1 15 -4 0 -14 -63 -12 -205 5 -66 8
-123 15 -127 15 -16 0 -7 20 10 21 15 0 14 1 -3 8 -13 5 -3 8 30 8 35 0 43 -2
27 -8 -29 -11 -28 -21 1 -14 12 3 43 1 67 -6 63 -16 131 -20 149 -8 12 8 8 9
-14 4 -28 -5 -29 -4 -11 10 11 8 15 15 10 15 -6 0 -14 -4 -19 -9 -20 -17 -62
-21 -81 -6 -15 11 -16 15 -4 16 8 1 -1 5 -20 9 l-35 7 42 2 c23 0 45 -3 48 -9z
m575 -21 c22 -6 21 -7 -12 -8 -20 -1 -43 -4 -52 -7 -10 -4 -14 0 -13 15 1 21
7 21 77 0z m245 -20 c31 0 36 -2 20 -9 -11 -5 -15 -9 -9 -9 6 -1 27 -3 45 -6
29 -4 30 -3 9 4 -23 8 -23 9 -4 10 12 1 27 -6 34 -14 7 -8 26 -15 42 -15 16 0
27 -4 24 -9 -7 -11 -46 -7 -136 13 -36 8 -105 20 -153 27 -107 15 -100 27 10
16 43 -4 96 -8 118 -8z m-1041 -11 c-6 -10 -51 -11 -57 0 -3 4 10 7 28 8 19 0
32 -3 29 -8z m1181 -8 c3 -5 -3 -10 -14 -10 -12 0 -21 5 -21 10 0 6 6 10 14
10 8 0 18 -4 21 -10z m-1387 -11 c-17 -7 -25 -15 -21 -25 3 -8 0 -14 -6 -14
-18 0 -12 38 7 43 32 9 47 5 20 -4z m141 7 c-2 -2 -17 -6 -34 -10 -22 -5 -26
-4 -15 4 14 9 59 15 49 6z m-202 -22 c-3 -3 -12 -4 -19 -1 -8 3 -5 6 6 6 11 1
17 -2 13 -5z m378 -54 c-3 -5 -12 -10 -18 -10 -7 0 -6 4 3 10 19 12 23 12 15
0z m-125 -20 c20 -6 21 -8 5 -8 -11 0 -31 4 -45 8 -20 6 -21 8 -5 8 11 0 31
-4 45 -8z m1510 -11 c0 -6 -4 -7 -10 -4 -5 3 -10 11 -10 16 0 6 5 7 10 4 6 -3
10 -11 10 -16z m-1610 1 l-25 -8 25 -2 c14 -1 19 -4 12 -7 -18 -7 -44 5 -37
17 3 5 16 10 28 9 20 -1 20 -2 -3 -9z m57 -6 c-3 -3 -12 -4 -19 -1 -8 3 -5 6
6 6 11 1 17 -2 13 -5z m1173 2 c0 -3 -4 -8 -10 -11 -5 -3 -10 -1 -10 4 0 6 5
11 10 11 6 0 10 -2 10 -4z m-988 -17 c-24 -4 -52 -4 -65 1 -16 6 -5 9 43 8 63
0 64 0 22 -9z m747 5 c17 -4 31 -13 31 -21 0 -8 6 -21 14 -29 8 -7 16 -19 18
-26 3 -7 11 -9 24 -3 10 4 29 9 41 11 13 1 33 5 45 9 16 4 19 4 9 -3 -11 -8
-9 -11 8 -17 11 -3 26 -15 31 -26 6 -10 19 -19 29 -19 10 0 33 -7 50 -16 27
-13 37 -14 56 -4 23 12 85 6 85 -9 0 -17 -59 -33 -136 -38 -92 -6 -197 4 -189
18 3 5 -1 6 -9 3 -15 -6 -90 28 -101 45 -3 6 -64 29 -136 52 -78 26 -125 46
-117 50 7 4 15 3 19 -3 4 -7 31 -8 78 -3 43 4 69 11 65 17 -4 5 -17 8 -30 5
-13 -2 -21 0 -18 4 6 10 87 12 133 3z m3074 -21 c39 -76 70 -194 82 -312 7
-71 18 -127 24 -129 16 -5 14 -92 -1 -92 -10 0 -10 -2 -2 -8 8 -5 10 -25 4
-67 -4 -33 -8 -51 -10 -40 -5 42 -19 -53 -21 -142 -4 -134 -17 -135 -18 -2 0
63 -8 179 -16 259 -8 80 -22 219 -31 310 -9 91 -19 184 -24 208 -9 49 -6 52
13 15z m147 -71 c12 -31 33 -111 47 -177 23 -108 26 -141 26 -340 -1 -223 -15
-367 -48 -480 -8 -27 -13 -36 -10 -20 3 17 8 75 12 130 6 75 9 91 14 65 6 -33
6 -32 8 15 1 28 4 77 6 110 3 50 2 53 -4 20 -5 -22 -9 -31 -10 -20 -1 11 -10
47 -21 79 -11 33 -18 62 -15 64 3 3 5 -1 5 -8 0 -7 3 -11 6 -8 3 4 0 17 -7 29
-11 22 -25 115 -33 224 -2 28 -9 120 -15 205 -6 85 -14 169 -17 185 l-5 30 20
-23 c11 -13 30 -49 41 -80z m-7035 78 c-8 -13 -44 -322 -50 -430 -3 -47 -7
-123 -10 -170 -3 -47 -6 -94 -9 -105 -2 -11 -9 -78 -16 -148 l-14 -128 -20 43
c-19 40 -21 60 -20 258 1 226 13 349 45 489 23 101 66 201 86 201 8 0 11 -4 8
-10z m81 -102 c-14 -98 -22 -183 -46 -498 -6 -75 -15 -151 -20 -170 -6 -19 -8
-57 -6 -85 l5 -50 -15 60 c-8 33 -16 117 -18 188 -3 70 -7 142 -10 160 -5 24
-4 27 3 12 8 -17 10 -18 10 -2 1 9 -4 26 -11 37 -10 15 -10 28 1 62 7 24 17
70 22 103 13 82 85 302 96 292 2 -3 -2 -52 -11 -109z m2965 72 c6 0 9 7 5 15
-7 18 15 20 32 3 10 -10 17 -10 33 0 13 9 18 9 14 2 -5 -8 3 -9 29 -5 42 8 47
9 106 7 26 -1 40 -6 35 -11 -6 -5 -83 -32 -172 -60 -134 -42 -161 -54 -158
-69 2 -15 -5 -17 -56 -16 -32 1 -56 -2 -53 -7 12 -21 -146 3 -192 29 -26 14
-26 39 1 46 13 3 31 9 41 13 12 4 15 3 10 -5 -4 -7 -2 -12 4 -12 6 0 13 7 16
15 3 8 22 17 42 21 21 3 46 8 57 11 16 3 17 2 5 -6 -8 -6 -25 -11 -37 -11 -27
0 -28 -8 -7 -35 15 -20 16 -19 43 13 31 37 34 37 54 17 16 -16 81 -10 71 6 -3
5 2 9 10 9 9 0 16 7 16 15 0 8 -7 15 -15 15 -8 0 -15 -5 -15 -10 0 -7 -6 -7
-17 -2 -10 5 -25 8 -33 6 -8 -2 0 3 18 11 18 9 30 20 26 26 -3 6 12 1 35 -10
22 -12 45 -21 52 -21z m929 -6 c0 -2 -9 -4 -21 -4 -11 0 -18 4 -14 10 5 8 35
3 35 -6z m-2109 -13 c-8 -5 -10 -14 -6 -22 6 -11 5 -11 -5 -2 -14 12 -6 33 13
33 8 0 7 -3 -2 -9z m1066 -7 c-3 -3 -12 -4 -19 -1 -8 3 -5 6 6 6 11 1 17 -2
13 -5z m-3077 -22 c0 -5 -7 -17 -15 -28 -18 -24 -19 -34 -2 -34 19 0 -28 -229
-50 -245 -10 -8 -20 -43 -28 -106 -12 -90 -13 -92 -14 -34 -2 137 36 366 71
423 18 30 38 42 38 24z m7302 -28 c22 -38 45 -157 53 -269 6 -91 -6 -104 -19
-20 -4 22 -11 42 -16 43 -6 2 -10 16 -10 32 0 16 -6 35 -14 42 -7 8 -19 38
-25 67 -14 65 -14 61 4 61 19 0 19 13 -1 52 -21 40 4 34 28 -8z m-3025 16 c14
9 26 8 53 -4 27 -12 30 -15 13 -16 -12 0 -25 -4 -28 -10 -8 -13 -35 -13 -35
-1 0 5 8 12 18 14 9 3 -1 4 -22 3 -26 -1 -40 4 -44 14 -4 13 -3 13 11 2 12
-10 20 -10 34 -2z m-2107 -123 c0 -2 -7 -18 -16 -36 -20 -40 -14 -47 25 -27
63 33 106 9 103 -57 -1 -44 -25 -158 -41 -199 -5 -13 -10 -27 -11 -33 -4 -22
-24 -34 -85 -50 l-64 -18 -40 40 -41 40 19 54 c10 30 22 63 26 74 4 11 -16
-15 -44 -57 -50 -75 -53 -78 -91 -78 -21 0 -41 4 -44 8 -7 12 70 140 120 199
57 67 184 163 184 140z m2853 -13 c83 -42 190 -161 246 -271 28 -57 27 -63
-17 -63 -35 0 -40 4 -81 65 -24 36 -46 64 -47 62 -2 -2 6 -27 17 -57 20 -52
20 -80 -1 -80 -5 0 -10 5 -10 11 0 13 -52 88 -61 89 -4 0 -9 -10 -13 -22 -5
-20 -8 -21 -17 -8 -8 12 -9 11 -6 -5 3 -11 8 -32 11 -47 5 -24 11 -28 39 -27
28 2 29 2 6 6 -31 5 -44 36 -28 65 10 18 11 18 30 -6 25 -32 24 -44 -1 -21
-21 19 -24 17 -14 -9 3 -9 15 -16 25 -16 23 0 24 -17 2 -42 -17 -19 -40 -22
-91 -12 -21 4 -29 11 -25 20 3 8 0 14 -7 14 -7 0 -10 7 -7 14 4 10 1 13 -7 10
-8 -3 -16 5 -20 21 -4 14 -10 23 -15 21 -5 -3 -16 21 -25 54 -13 47 -14 63 -5
79 17 27 39 15 39 -22 0 -51 14 -25 19 37 1 13 15 -2 17 -19 1 -8 -2 -17 -7
-21 -5 -3 -9 -16 -9 -30 0 -28 24 -33 38 -7 11 18 42 11 42 -9 0 -10 -2 -10
-9 0 -6 10 -11 9 -22 -4 -10 -13 -10 -16 -1 -10 7 4 19 3 27 -4 11 -9 13 -6
11 15 -2 16 -28 50 -68 91 -55 54 -65 60 -61 39 3 -15 1 -25 -6 -25 -6 0 -11
7 -11 16 0 8 -4 12 -10 9 -5 -3 -10 1 -10 9 0 8 5 18 11 21 6 4 8 14 4 22 -6
16 18 15 99 -3 l30 -7 -22 36 c-24 42 -23 43 21 21z m-2229 -65 c-5 -9 39 -18
166 -33 77 -10 91 -14 55 -15 -73 -1 -176 16 -232 38 -43 18 -45 19 -16 18 17
-1 29 -5 27 -8z m1598 -5 c-73 -32 -307 -63 -263 -35 8 5 20 7 27 4 6 -2 15 0
19 6 3 6 32 11 63 11 31 1 80 7 107 15 65 18 89 17 47 -1z m563 -54 c3 -5 -1
-10 -10 -10 -9 0 -13 5 -10 10 3 6 8 10 10 10 2 0 7 -4 10 -10z m36 -83 c-17
-17 -24 -1 -9 22 11 18 14 19 16 5 2 -9 -1 -21 -7 -27z m-3582 -23 c17 -4 31
-12 31 -19 0 -16 -52 -35 -96 -35 -19 0 -34 -4 -34 -9 0 -5 -8 -11 -18 -13
-12 -4 -21 -18 -25 -39 -3 -19 -9 -45 -12 -59 -5 -22 -4 -22 4 -5 l10 20 1
-20 c1 -14 8 -7 25 25 32 59 31 46 -5 -80 -16 -58 -30 -109 -30 -115 1 -15 28
44 44 95 l15 45 -6 -40 c-3 -22 -14 -64 -25 -92 -22 -60 -16 -85 12 -51 11 13
19 17 20 10 0 -7 5 -10 10 -7 6 4 8 11 5 16 -4 5 -1 9 4 9 6 0 11 6 11 13 0
19 60 159 82 190 21 29 51 35 93 15 30 -13 31 -22 7 -49 -17 -17 -82 -189 -82
-213 0 -5 9 -1 20 9 11 10 28 15 40 12 15 -4 20 0 20 14 0 24 17 25 23 2 4
-15 5 -14 6 3 0 11 16 58 34 104 40 104 63 122 121 95 28 -13 36 -23 34 -39
-2 -11 -10 -21 -18 -21 -14 0 -27 -32 -29 -70 -1 -17 1 -17 9 -5 13 19 4 -30
-22 -125 -21 -76 -32 -128 -22 -107 9 19 24 14 24 -8 0 -11 -5 -20 -11 -20 -5
0 -7 -4 -4 -10 3 -5 -1 -10 -9 -10 -9 0 -16 -5 -16 -11 0 -5 5 -7 10 -4 16 10
12 -7 -7 -27 -32 -36 -67 -18 -76 39 -3 18 -13 54 -23 79 l-18 47 -12 -34 -12
-34 -2 40 c-1 22 -4 31 -7 20 -3 -11 -9 -24 -15 -30 -6 -6 -7 -4 -3 8 4 9 3
17 -1 17 -9 0 -29 -54 -44 -117 -6 -25 -5 -30 6 -26 8 3 14 9 14 14 0 5 6 9
12 9 7 0 1 -10 -12 -23 -33 -31 -46 -30 -81 5 -17 18 -26 23 -22 12 5 -13 3
-15 -7 -9 -9 6 -11 27 -8 76 4 56 3 69 -9 69 -16 0 -31 -14 -50 -45 -6 -11
-16 -19 -22 -17 -6 1 -11 -7 -11 -18 0 -11 -5 -20 -11 -20 -8 0 -9 11 -5 33 4
23 3 28 -4 17 -5 -8 -10 -23 -10 -32 0 -22 -19 -33 -32 -20 -6 6 -16 8 -23 6
-23 -9 -38 24 -32 74 23 183 44 268 96 386 36 81 60 105 107 105 23 1 56 -2
73 -5z m4459 -17 c29 -31 74 -143 101 -252 12 -49 27 -106 32 -126 12 -48 12
-146 -1 -154 -5 -3 -10 -1 -10 4 0 17 -38 -25 -42 -46 -3 -12 -9 -4 -21 27
-16 43 -16 44 -11 9 4 -24 1 -39 -7 -44 -9 -6 -11 -2 -6 16 6 23 5 23 -8 5 -8
-11 -15 -17 -15 -13 0 18 -2 23 -16 30 -8 5 -12 13 -8 18 4 6 11 6 20 -2 8 -7
14 -7 14 -1 0 5 -7 12 -15 16 -8 3 -15 17 -15 31 0 15 -4 24 -10 20 -5 -3 -10
4 -11 17 -1 17 -3 14 -11 -12 -5 -19 -14 -41 -20 -48 -6 -7 -8 -27 -5 -46 4
-27 1 -38 -17 -55 -25 -24 -58 -27 -74 -8 -19 24 -52 88 -52 102 0 8 -4 15
-10 15 -5 0 -10 -6 -10 -12 0 -29 -29 45 -33 84 -3 24 -8 55 -12 71 -8 31 1
34 30 9 51 -43 85 -118 64 -139 -4 -4 -1 -19 6 -33 l14 -25 0 25 c1 83 -55
296 -91 344 -20 28 -20 30 -3 43 28 19 72 16 94 -8 11 -12 36 -64 57 -115 20
-52 41 -97 46 -100 4 -3 8 -15 9 -27 0 -21 1 -21 8 -3 7 18 9 16 22 -12 8 -18
18 -32 23 -32 12 0 0 67 -30 170 -38 131 -29 164 14 50 24 -63 30 -45 7 20
-17 49 -19 64 -6 56 13 -8 19 14 14 56 -6 41 -18 48 -99 48 -33 0 -56 5 -64
15 -13 16 -10 18 35 28 56 13 102 7 123 -16z m1129 -94 c-3 -10 -5 -2 -5 17 0
19 2 27 5 18 2 -10 2 -26 0 -35z m-3485 20 c26 -24 22 -41 -14 -63 -34 -21
-74 -27 -63 -11 9 16 -62 24 -143 17 -41 -3 -73 -3 -69 0 3 4 46 21 94 40 98
37 166 43 195 17z m315 -9 c35 -14 77 -32 91 -40 25 -14 21 -14 -45 -8 -81 7
-156 -2 -132 -17 10 -6 6 -9 -16 -9 -30 0 -95 33 -95 48 0 4 7 18 16 30 22 31
96 30 181 -4z m-4017 -46 c0 -35 -4 -58 -8 -52 -4 6 -33 12 -66 13 -52 1 -57
-1 -46 -14 7 -9 19 -14 25 -11 6 2 27 1 46 -4 31 -7 29 -8 -22 -9 -66 -1 -69
3 -69 85 l0 54 70 0 70 0 0 -62z m7780 11 l0 -51 -65 4 c-58 4 -65 2 -68 -17
-2 -11 -5 10 -6 48 l-1 67 70 0 70 0 0 -51z m-2630 1 c0 -5 -2 -10 -4 -10 -3
0 -8 5 -11 10 -3 6 -1 10 4 10 6 0 11 -4 11 -10z m535 -26 c36 -14 88 -165 89
-263 1 -70 -10 -187 -20 -202 -11 -18 -44 -10 -44 11 0 11 -4 20 -8 20 -5 0
-9 6 -10 13 -3 39 -26 114 -39 128 -8 10 -19 48 -24 85 -5 38 -14 84 -19 102
-7 26 -6 34 7 39 8 3 19 0 25 -8 8 -12 9 -11 5 1 -2 8 -18 16 -35 18 -36 4
-40 12 -14 34 29 26 58 33 87 22z m-159 -124 c13 -47 31 -98 39 -113 20 -34
18 -190 -2 -183 -8 3 -10 -1 -6 -11 5 -12 3 -14 -6 -8 -10 6 -11 2 -6 -15 5
-15 4 -20 -4 -16 -6 4 -11 3 -11 -2 0 -18 -37 -1 -48 21 -6 12 -23 100 -38
195 -21 128 -31 172 -42 172 -7 0 -12 6 -10 12 5 14 73 38 97 35 9 -1 23 -34
37 -87z m-3389 57 c14 -14 13 -16 -6 -26 -12 -7 -21 -22 -21 -34 0 -15 -3 -18
-8 -9 -5 7 -9 -20 -10 -61 -1 -41 -6 -85 -11 -99 -7 -18 -5 -40 5 -74 18 -60
18 -59 -8 -84 -25 -23 -88 -25 -88 -2 0 7 -3 11 -7 9 -9 -6 -12 22 -14 123 -1
54 6 104 27 179 l27 103 49 -4 c27 -3 56 -12 65 -21z m3132 -33 c3 -3 -3 -29
-13 -59 -13 -41 -23 -56 -39 -60 -37 -7 -116 -15 -242 -21 -75 -4 -113 -10
-100 -15 13 -5 -4 -7 -45 -7 -51 0 -57 2 -30 7 87 17 -249 21 -1180 16 -547
-4 -1022 -8 -1055 -10 -33 -2 -106 -6 -162 -10 -83 -6 -103 -5 -107 6 -9 35
-36 148 -36 153 0 12 2995 12 3009 0z m1752 -77 c-10 -9 -11 -8 -5 6 3 10 9
15 12 12 3 -3 0 -11 -7 -18z m386 -54 c-3 -10 -5 -2 -5 17 0 19 2 27 5 18 2
-10 2 -26 0 -35z m-4694 -30 c-7 -2 -19 -2 -25 0 -7 3 -2 5 12 5 14 0 19 -2
13 -5z m279 0 c-40 -2 -103 -2 -140 0 -37 2 -4 3 73 3 77 0 107 -2 67 -3z
m1481 0 c-7 -2 -21 -2 -30 0 -10 3 -4 5 12 5 17 0 24 -2 18 -5z m200 0 c-18
-2 -48 -2 -65 0 -18 2 -4 4 32 4 36 0 50 -2 33 -4z m370 0 c-13 -2 -33 -2 -45
0 -13 2 -3 4 22 4 25 0 35 -2 23 -4z m-3123 -17 c0 -2 -8 -10 -17 -17 -16 -13
-17 -12 -4 4 13 16 21 21 21 13z m32 -37 c-4 -39 -5 -39 -23 -23 -20 18 -25
34 -10 34 5 0 12 -8 15 -17 4 -15 5 -15 4 2 -1 34 2 45 10 45 4 0 6 -18 4 -41z
m3658 -19 c0 -11 5 -20 10 -20 6 0 10 -9 10 -19 0 -11 5 -23 10 -26 6 -4 8
-10 5 -15 -3 -4 5 -6 17 -3 22 4 22 4 5 -10 -18 -15 -7 -34 13 -22 6 3 10 1
10 -4 0 -17 -35 -13 -52 7 -35 39 -61 132 -38 132 5 0 10 -9 10 -20z m-3709
-13 c-13 -13 -26 -3 -16 12 3 6 11 8 17 5 6 -4 6 -10 -1 -17z m-1661 -37 c0
-5 -2 -10 -4 -10 -3 0 -8 5 -11 10 -3 6 -1 10 4 10 6 0 11 -4 11 -10z m5430
-11 c0 -5 -4 -9 -10 -9 -5 0 -10 7 -10 16 0 8 5 12 10 9 6 -3 10 -10 10 -16z
m-2009 -32 c-5 -13 -9 -30 -9 -38 1 -8 0 -23 -1 -34 -1 -17 -3 -18 -11 -5 -7
11 -10 11 -10 2 0 -7 -5 -10 -12 -6 -7 5 -8 3 -3 -6 6 -10 -3 -12 -49 -7 -72
7 -65 -5 7 -14 l52 -6 -62 -2 c-67 -1 -126 19 -155 54 -18 22 -15 36 4 17 7
-7 19 -12 28 -12 8 0 1 9 -17 21 -18 12 -33 25 -33 30 0 5 44 9 98 10 53 1
108 5 122 9 48 16 60 12 51 -13z m305 4 c29 -6 84 -7 123 -4 72 6 92 -4 54
-26 -25 -14 -7 -14 20 0 l22 12 -20 -23 c-23 -27 -119 -90 -136 -90 -6 0 -1 9
12 20 20 16 21 19 7 20 -9 0 -20 -5 -23 -10 -14 -23 -154 24 -155 53 0 13 13
8 36 -14 15 -14 40 -23 71 -25 42 -3 44 -3 18 6 -16 5 -39 11 -50 12 -11 2
-30 15 -42 29 -28 33 -31 63 -5 55 9 -3 40 -10 68 -15z m-3729 -23 c-3 -8 -6
-5 -6 6 -1 11 2 17 5 13 3 -3 4 -12 1 -19z m4972 -9 c16 -46 14 -79 -4 -79
-34 0 -140 -43 -158 -63 l-19 -22 8 30 c4 17 14 44 22 60 9 17 15 35 14 41 -3
16 17 31 64 47 57 21 61 20 73 -14z m-2789 1 c21 -11 42 -25 46 -32 5 -7 -4
-5 -19 5 -32 21 -60 23 -30 2 22 -15 87 -114 80 -121 -2 -2 -39 11 -83 30 -43
18 -86 36 -95 39 -14 5 -15 12 -6 51 9 42 13 46 39 46 16 0 46 -9 68 -20z
m1257 -2 c-3 -8 -6 -5 -6 6 -1 11 2 17 5 13 3 -3 4 -12 1 -19z m321 -95 c-10
-2 -28 -2 -40 0 -13 2 -5 4 17 4 22 1 32 -1 23 -4z m679 -147 c51 -179 111
-292 235 -444 l60 -73 -138 2 -138 1 -17 38 c-23 52 -111 140 -139 140 -23 0
-23 1 -17 103 6 99 22 177 38 177 4 0 22 -46 40 -102 18 -57 37 -107 41 -113
11 -13 10 87 -3 229 -5 66 -7 131 -3 145 6 23 8 24 11 6 2 -11 16 -60 30 -109z
m-1781 22 c-4 -46 -9 -130 -12 -188 l-5 -105 31 85 c18 47 36 101 42 120 l11
35 13 -55 c7 -30 16 -99 20 -152 6 -91 6 -98 -11 -98 -22 0 -89 -68 -112 -114
-33 -66 -34 -66 -174 -66 l-129 0 75 95 c41 52 91 125 112 163 39 70 122 300
123 340 0 12 5 22 11 22 9 0 10 -23 5 -82z m-443 -68 c31 -17 57 -35 57 -40 0
-11 -119 17 -139 33 -22 16 -41 42 -75 101 l-29 50 64 -57 c35 -31 90 -71 122
-87z m2779 68 c-35 -63 -109 -108 -176 -108 l-41 1 56 30 c31 17 83 52 115 79
32 27 63 49 67 49 5 1 -5 -23 -21 -51z m-1717 -3 c33 0 82 4 108 9 44 8 48 7
45 -10 -2 -11 -10 -25 -20 -31 -10 -8 -14 -21 -11 -34 4 -15 3 -20 -5 -15 -7
4 -12 2 -12 -3 0 -6 -8 -11 -17 -11 -12 0 -14 3 -6 8 6 4 -22 6 -62 5 -57 -1
-80 3 -105 18 -18 11 -30 23 -26 26 3 3 13 0 23 -8 10 -8 5 3 -10 23 l-28 38
33 -8 c18 -4 60 -7 93 -7z m542 1 c102 1 105 -3 46 -57 -38 -36 -59 -46 -117
-54 -39 -6 -47 -5 -41 5 6 9 4 12 -6 8 -8 -3 -27 10 -44 31 -23 27 -26 33 -11
28 18 -7 19 -6 4 10 -37 43 -34 47 23 37 30 -5 95 -9 146 -8z m-393 -51 c-4
-8 -11 -12 -16 -9 -6 4 -5 10 3 15 19 12 19 11 13 -6z m1534 -52 c-2 -10 -10
-25 -18 -34 -19 -21 -98 -42 -136 -36 l-29 4 33 8 c18 4 31 10 28 13 -10 9 23
32 46 32 13 0 32 7 42 15 26 20 38 19 34 -2z m-1628 -3 c0 -5 -2 -10 -4 -10
-3 0 -8 5 -11 10 -3 6 -1 10 4 10 6 0 11 -4 11 -10z m-1134 -11 c32 -8 41 -14
32 -20 -9 -6 -6 -9 12 -10 14 0 19 -3 12 -6 -10 -4 -9 -9 5 -20 17 -13 17 -14
-2 -9 -11 3 -37 8 -57 11 -20 4 -52 18 -70 32 l-33 25 28 -6 c19 -5 26 -3 22
4 -8 13 -4 13 51 -1z m-92 -41 c73 -59 71 -58 60 -58 -5 0 -23 12 -40 28 -17
15 -44 37 -60 49 -16 12 -25 22 -20 22 4 1 31 -18 60 -41z m3066 13 c-13 -11
-28 -17 -32 -15 -4 3 -8 1 -8 -5 0 -10 -89 -56 -96 -49 -2 2 15 15 36 28 22
14 40 28 40 32 0 5 10 8 23 8 12 0 29 5 37 10 26 17 26 10 0 -9z m-1734 -130
c11 -14 -3 -61 -18 -61 -5 0 -8 -7 -8 -16 0 -8 -4 -12 -10 -9 -5 3 -10 1 -10
-5 0 -8 -9 -10 -25 -6 -14 4 -25 3 -25 -1 0 -5 -11 -8 -24 -8 -37 0 -21 12 27
21 l42 8 -50 11 c-52 12 -95 32 -132 62 -22 18 -20 18 100 18 92 0 125 -3 133
-14z m434 5 c0 -4 8 -5 17 -2 19 8 10 -5 -51 -71 -30 -33 -117 -70 -136 -58
-19 12 -10 22 15 18 27 -6 115 32 115 49 0 6 10 19 22 29 11 11 19 21 16 24
-2 3 -14 -4 -26 -15 -12 -11 -26 -20 -32 -20 -6 0 -9 -4 -6 -8 3 -5 -26 -8
-64 -7 -39 1 -70 -2 -70 -7 0 -5 -9 -4 -20 2 -11 6 -20 16 -20 22 0 9 3 9 12
0 23 -23 27 -12 8 21 l-19 32 119 0 c66 0 120 -4 120 -9z m-554 -77 c20 -1 23
-3 10 -6 -26 -7 -94 16 -100 34 -4 10 4 9 28 -6 18 -12 46 -22 62 -22z m-297
-55 c12 -15 21 -31 21 -37 0 -5 -10 3 -22 19 -12 16 -27 32 -33 36 -6 5 -6 8
2 8 6 0 21 -12 32 -26z m1061 23 c0 -2 -14 -16 -32 -33 -30 -28 -30 -17 0 19
13 15 32 23 32 14z m-2139 -34 l24 -27 -32 23 c-33 23 -40 31 -25 31 5 0 19
-12 33 -27z m2079 -37 c0 -2 -8 -10 -17 -17 -16 -13 -17 -12 -4 4 13 16 21 21
21 13z m-2511 -302 c23 -9 57 -34 76 -56 65 -77 65 -76 65 -642 l0 -511 -24
-50 c-27 -59 -98 -125 -153 -144 -23 -8 -107 -15 -218 -18 -173 -4 -182 -3
-225 19 -51 26 -94 83 -109 145 -7 27 -11 223 -11 551 0 565 0 563 67 641 65
77 118 90 349 85 103 -2 152 -7 183 -20z m-884 -3 c54 -24 109 -88 129 -149
15 -44 17 -91 14 -359 -3 -298 -4 -309 -26 -350 -29 -55 -86 -111 -131 -130
-20 -8 -98 -20 -173 -26 l-138 -11 0 -302 0 -302 -97 -31 c-54 -17 -113 -34
-130 -37 l-33 -6 0 861 0 861 273 0 c242 0 276 -2 312 -19z m1375 13 c0 -9 78
-438 92 -504 6 -30 14 -59 18 -63 9 -10 38 125 82 380 l33 193 108 0 c59 0
107 -3 107 -7 0 -13 71 -408 87 -485 9 -43 19 -78 23 -78 4 0 13 26 19 58 19
93 57 299 76 410 l18 102 132 0 132 0 -43 -217 c-49 -249 -100 -515 -170 -887
-56 -298 -45 -279 -173 -274 l-75 3 -38 175 c-64 290 -90 400 -97 400 -8 0
-32 -101 -86 -368 -24 -118 -45 -215 -47 -217 -2 -2 -46 -5 -98 -7 l-95 -3
-18 90 c-10 50 -61 326 -113 615 -52 289 -102 562 -112 608 l-19 82 129 0 c70
0 128 -3 128 -6z m1480 -128 c0 -159 8 -150 -134 -145 l-91 4 0 -125 0 -125
110 -5 110 -5 0 -135 0 -135 -105 -3 c-58 -1 -108 -6 -113 -11 -4 -4 -4 -67
-1 -139 l7 -132 109 0 108 0 0 -135 0 -135 -235 0 -235 0 0 680 0 680 235 0
235 0 0 -134z m675 110 c61 -28 87 -56 117 -121 22 -48 23 -61 23 -280 0 -267
-5 -288 -92 -365 l-49 -44 62 -136 c34 -74 87 -188 118 -253 31 -65 56 -123
56 -128 0 -5 -59 -9 -134 -9 l-134 0 -36 83 c-21 45 -65 145 -99 222 l-62 140
-40 3 -40 3 3 -183 c2 -101 1 -202 -3 -225 l-6 -43 -120 0 -119 0 0 680 0 680
253 0 c244 0 254 -1 302 -24z m925 -115 l0 -139 -122 0 -123 1 0 -129 0 -128
118 3 118 3 -3 -144 -3 -143 -115 -2 -115 -1 -3 -277 -2 -276 -98 1 c-53 1
-107 4 -119 7 l-23 5 0 679 0 679 245 0 245 0 0 -139z m360 -410 c0 -491 2
-549 16 -555 9 -3 56 -6 105 -6 l89 0 0 -151 0 -152 -207 7 c-115 4 -218 10
-230 13 l-23 5 0 694 0 694 125 0 125 0 0 -549z m771 545 c2 -2 3 -66 1 -141
l-3 -136 -112 2 -112 2 -3 -132 -3 -131 111 0 110 0 0 -140 0 -140 -110 0
-110 0 0 -165 0 -165 115 0 115 0 0 -150 0 -150 -32 0 c-18 0 -80 4 -138 9
-58 5 -149 13 -202 16 l-98 7 0 709 0 709 233 0 c129 0 236 -2 238 -4z m414
-168 c32 -93 62 -168 66 -168 3 0 33 77 65 170 l59 170 138 0 c128 0 139 -1
132 -17 -43 -110 -190 -506 -235 -634 -12 -34 -6 -56 150 -523 89 -268 160
-490 157 -493 -3 -2 -69 10 -147 28 l-141 33 -85 263 c-47 144 -89 265 -94
268 -7 5 -46 -97 -127 -335 -20 -58 -41 -110 -47 -116 -14 -14 -256 25 -256
41 0 6 63 183 140 394 77 210 140 391 140 402 0 19 -119 340 -215 582 l-43
108 141 -3 142 -3 60 -167z"/>
<path d="M3175 6020 c-3 -5 -48 -35 -100 -66 -70 -42 -95 -62 -100 -82 l-8
-27 -11 27 c-11 26 -183 155 -193 145 -6 -7 51 -131 78 -168 l21 -30 -36 6
c-23 5 -36 3 -36 -3 0 -12 55 -56 82 -65 10 -3 20 -18 24 -32 6 -25 42 -43 74
-36 25 5 70 53 70 76 0 14 11 27 35 38 39 19 55 46 89 151 22 71 25 89 11 66z"/>
<path d="M5742 6018 c3 -7 15 -42 27 -78 28 -85 55 -128 85 -136 17 -4 26 -15
30 -38 4 -18 17 -43 31 -56 40 -37 115 -25 115 19 0 9 16 25 34 35 19 10 45
30 58 44 l23 25 -37 -7 c-23 -4 -38 -3 -38 3 0 5 4 11 9 13 8 3 91 161 91 172
0 18 -183 -110 -192 -135 -10 -25 -28 -25 -28 1 0 11 -4 20 -8 20 -4 0 -52 29
-106 65 -54 36 -96 60 -94 53z"/>
<path d="M3005 5193 c-166 -10 -83 -35 135 -41 154 -4 177 -2 189 12 8 9 11
20 7 24 -8 8 -233 11 -331 5z"/>
<path d="M5588 5194 c-25 -8 -22 -31 5 -38 34 -9 254 -7 326 4 62 9 79 15 69
25 -7 7 -379 15 -400 9z"/>
<path d="M2574 4881 c-34 -16 -69 -39 -78 -52 -19 -28 -30 -20 -49 36 l-14 39
-7 -28 c-5 -22 -10 -25 -21 -16 -10 9 -15 5 -20 -20 -4 -16 -4 -43 0 -59 5
-24 2 -29 -17 -35 -13 -3 -35 -6 -50 -6 -41 0 -34 -15 26 -59 54 -40 64 -44
105 -42 18 1 22 5 18 20 -4 15 2 22 24 30 20 7 35 22 44 46 9 19 19 35 24 35
4 0 20 21 35 48 14 26 34 57 42 70 21 29 11 28 -62 -7z"/>
<path d="M6312 4852 c17 -31 39 -66 48 -77 9 -11 24 -33 34 -48 10 -16 31 -33
47 -39 23 -8 28 -15 24 -29 -12 -36 51 -24 121 24 35 23 64 45 64 48 0 4 -25
9 -55 11 -61 5 -75 12 -57 30 15 15 15 63 0 91 -11 21 -11 21 -19 2 -6 -17 -8
-15 -8 10 -1 28 -2 27 -27 -20 -15 -28 -28 -52 -30 -53 -1 -2 -15 10 -31 27
-15 17 -54 42 -86 56 l-57 25 32 -58z"/>
<path d="M2440 4449 c-14 -24 2 -49 31 -49 28 0 43 35 23 54 -21 22 -41 20
-54 -5z"/>
<path d="M6444 4456 c-10 -26 1 -51 23 -54 28 -4 50 32 32 54 -15 18 -48 18
-55 0z"/>
<path d="M4245 6130 c3 -5 10 -10 16 -10 5 0 9 5 9 10 0 6 -7 10 -16 10 -8 0
-12 -4 -9 -10z"/>
<path d="M4594 6134 c-10 -8 -13 -13 -6 -9 7 4 19 1 27 -5 11 -9 15 -9 15 -1
0 6 -6 11 -12 11 -9 0 -8 4 2 10 8 5 10 10 4 10 -5 0 -19 -7 -30 -16z"/>
<path d="M4676 6114 c-16 -40 3 -47 28 -9 16 24 15 25 -3 25 -10 0 -22 -7 -25
-16z"/>
<path d="M4605 6080 c-3 -6 1 -7 9 -4 18 7 21 14 7 14 -6 0 -13 -4 -16 -10z"/>
<path d="M4740 5940 c0 -5 5 -10 11 -10 5 0 7 5 4 10 -3 6 -8 10 -11 10 -2 0
-4 -4 -4 -10z"/>
<path d="M3880 5630 c0 -5 5 -10 10 -10 6 0 10 5 10 10 0 6 -4 10 -10 10 -5 0
-10 -4 -10 -10z"/>
<path d="M4370 5410 c0 -11 4 -20 9 -20 5 0 7 9 4 20 -3 11 -7 20 -9 20 -2 0
-4 -9 -4 -20z"/>
<path d="M3742 4960 c-7 -11 -10 -20 -6 -20 7 0 34 27 34 34 0 13 -16 5 -28
-14z"/>
<path d="M3584 4905 c-18 -13 -18 -14 4 -8 12 3 25 9 28 14 8 14 -10 11 -32
-6z"/>
<path d="M3223 4440 c-20 -19 -33 -26 -35 -18 -3 8 -7 8 -11 1 -3 -5 5 -15 18
-21 21 -10 23 -9 18 5 -5 12 -2 15 10 10 12 -4 14 -2 10 10 -5 12 -2 15 8 11
10 -4 15 1 15 13 0 11 -1 19 -1 19 -1 0 -15 -14 -32 -30z"/>
<path d="M3161 4387 c-8 -11 -5 -14 18 -14 24 0 27 3 16 14 -8 7 -16 13 -18
13 -3 0 -10 -6 -16 -13z"/>
<path d="M2986 4353 c-4 -9 -3 -20 2 -25 6 -6 11 1 14 16 6 29 -6 35 -16 9z"/>
<path d="M3036 4323 c-6 -14 -5 -15 5 -6 7 7 10 15 7 18 -3 3 -9 -2 -12 -12z"/>
<path d="M2930 4277 c0 -9 -4 -17 -9 -17 -5 0 -11 -7 -14 -14 -4 -10 -1 -13 8
-10 16 6 30 42 21 51 -3 4 -6 -1 -6 -10z"/>
<path d="M5890 4341 c0 -6 4 -13 10 -16 6 -3 7 1 4 9 -7 18 -14 21 -14 7z"/>
<path d="M5965 4314 c8 -20 24 -45 35 -54 11 -10 20 -22 20 -29 0 -6 5 -11 10
-11 13 0 3 20 -41 85 -37 54 -44 57 -24 9z"/>
<path d="M5970 4225 c0 -8 2 -15 4 -15 2 0 6 7 10 15 3 8 1 15 -4 15 -6 0 -10
-7 -10 -15z"/>
<path d="M5893 4213 c9 -2 14 -9 11 -15 -4 -7 -2 -8 5 -4 15 10 4 26 -17 25
-15 -1 -15 -2 1 -6z"/>
<path d="M6050 4173 c0 -4 5 -15 10 -23 8 -13 10 -13 10 2 0 9 -4 20 -10 23
-5 3 -10 3 -10 -2z"/>
<path d="M3688 4314 c-16 -8 -28 -17 -28 -19 0 -10 16 -4 40 15 30 23 25 25
-12 4z"/>
<path d="M3738 4193 c-14 -2 -32 -10 -38 -18 -8 -10 -2 -10 32 2 41 14 62 25
42 22 -5 -1 -21 -4 -36 -6z"/>
<path d="M3558 4103 c7 -3 16 -2 19 1 4 3 -2 6 -13 5 -11 0 -14 -3 -6 -6z"/>
<path d="M5250 4468 c35 -24 79 -53 98 -66 18 -13 36 -21 39 -18 3 3 -11 15
-31 27 -20 11 -36 26 -36 32 0 14 -93 67 -117 67 -9 0 12 -19 47 -42z"/>
<path d="M5110 4457 c0 -11 74 -48 87 -43 8 3 11 1 8 -4 -3 -6 5 -10 18 -10
14 0 27 -7 31 -15 3 -8 10 -15 16 -15 6 0 8 6 4 13 -6 10 -4 10 7 0 15 -15 29
-17 29 -4 0 14 -100 61 -142 66 -22 3 -44 8 -49 11 -5 3 -9 3 -9 1z"/>
<path d="M5195 4335 c11 -8 30 -25 43 -37 18 -17 25 -19 32 -9 6 11 9 11 13 0
4 -10 6 -10 6 -2 1 7 -21 24 -49 38 -55 28 -76 32 -45 10z"/>
<path d="M5370 4226 c0 -2 7 -9 15 -16 13 -11 14 -10 9 4 -5 14 -24 23 -24 12z"/>
<path d="M5265 4201 c-3 -5 -1 -12 5 -16 5 -3 10 1 10 9 0 18 -6 21 -15 7z"/>
<path d="M1382 4115 c0 -16 2 -22 5 -12 2 9 2 23 0 30 -3 6 -5 -1 -5 -18z"/>
<path d="M1366 4049 c4 -19 1 -28 -10 -32 -18 -7 -22 -27 -6 -27 19 0 33 46
21 66 -10 17 -10 16 -5 -7z"/>
<path d="M1426 3938 c-3 -13 -5 -34 -5 -48 1 -15 5 -7 10 19 9 47 6 68 -5 29z"/>
<path d="M1317 3903 c-4 -3 -7 -20 -6 -37 l1 -31 8 35 c9 36 8 45 -3 33z"/>
<path d="M1383 3725 c-3 -9 -3 -18 -1 -21 3 -3 8 4 11 16 6 23 -1 27 -10 5z"/>
<path d="M1411 3694 c0 -11 3 -14 6 -6 3 7 2 16 -1 19 -3 4 -6 -2 -5 -13z"/>
<path d="M1413 3523 c1 -29 4 -47 8 -40 4 6 3 30 -1 52 -8 39 -8 39 -7 -12z"/>
<path d="M1628 3633 c5 -21 7 -23 10 -9 2 10 0 22 -6 28 -6 6 -7 0 -4 -19z"/>
<path d="M1612 3530 c0 -14 2 -19 5 -12 2 6 2 18 0 25 -3 6 -5 1 -5 -13z"/>
<path d="M7641 4025 c0 -71 5 -139 10 -150 7 -15 8 -12 4 15 -4 31 -4 32 5 11
6 -13 8 -40 5 -60 l-6 -36 17 33 c9 18 18 31 20 29 2 -2 10 -28 18 -58 14 -53
15 -53 15 -16 1 52 -23 165 -58 272 l-30 90 0 -130z"/>
<path d="M7526 4095 c4 -8 8 -15 10 -15 2 0 4 7 4 15 0 8 -4 15 -10 15 -5 0
-7 -7 -4 -15z"/>
<path d="M7556 4015 c3 -16 8 -63 11 -102 3 -40 10 -73 16 -73 13 0 2 100 -18
160 -8 25 -13 32 -9 15z"/>
<path d="M7551 3874 c0 -11 3 -14 6 -6 3 7 2 16 -1 19 -3 4 -6 -2 -5 -13z"/>
<path d="M7632 3850 c0 -14 2 -19 5 -12 2 6 2 18 0 25 -3 6 -5 1 -5 -13z"/>
<path d="M7690 3808 c0 -23 3 -29 9 -19 8 12 4 51 -5 51 -2 0 -4 -15 -4 -32z"/>
<path d="M7542 3665 c0 -87 0 -88 12 -50 7 22 10 45 7 50 -3 6 -8 28 -12 50
-5 29 -7 14 -7 -50z"/>
<path d="M7690 3706 c0 -8 5 -18 10 -21 6 -3 10 1 10 9 0 8 -4 18 -10 21 -5 3
-10 -1 -10 -9z"/>
<path d="M7680 3600 c0 -13 18 -22 24 -11 3 5 -1 11 -9 15 -8 3 -15 1 -15 -4z"/>
<path d="M7553 3450 c0 -25 2 -35 4 -22 2 12 2 32 0 45 -2 12 -4 2 -4 -23z"/>
<path d="M7572 3470 c0 -14 2 -19 5 -12 2 6 2 18 0 25 -3 6 -5 1 -5 -13z"/>
<path d="M7551 3294 c0 -11 3 -14 6 -6 3 7 2 16 -1 19 -3 4 -6 -2 -5 -13z"/>
<path d="M4938 4273 c7 -3 16 -2 19 1 4 3 -2 6 -13 5 -11 0 -14 -3 -6 -6z"/>
<path d="M4780 4108 c0 -4 -19 -8 -42 -8 -23 0 -39 -3 -35 -6 10 -10 147 -33
162 -27 23 8 17 21 -7 16 -13 -2 -34 0 -48 6 -23 9 -21 10 18 10 24 1 41 5 37
10 -7 12 -85 10 -85 -1z"/>
<path d="M4951 4045 c-41 -15 -23 -25 45 -25 48 0 63 23 22 34 -27 7 -23 7
-67 -9z"/>
<path d="M4940 3990 c0 -5 5 -10 10 -10 6 0 10 5 10 10 0 6 -4 10 -10 10 -5 0
-10 -4 -10 -10z"/>
<path d="M5121 3974 c0 -11 3 -14 6 -6 3 7 2 16 -1 19 -3 4 -6 -2 -5 -13z"/>
<path d="M8000 3500 c0 -5 5 -10 10 -10 6 0 10 5 10 10 0 6 -4 10 -10 10 -5 0
-10 -4 -10 -10z"/>
<path d="M8122 3430 c0 -14 2 -19 5 -12 2 6 2 18 0 25 -3 6 -5 1 -5 -13z"/>
<path d="M903 3410 c0 -25 2 -35 4 -22 2 12 2 32 0 45 -2 12 -4 2 -4 -23z"/>
<path d="M934 3345 c0 -49 1 -71 3 -48 2 23 2 64 0 90 -2 26 -3 8 -3 -42z"/>
<path d="M922 3210 c0 -14 2 -19 5 -12 2 6 2 18 0 25 -3 6 -5 1 -5 -13z"/>
<path d="M3718 4013 c7 -3 16 -2 19 1 4 3 -2 6 -13 5 -11 0 -14 -3 -6 -6z"/>
<path d="M3072 3767 c-18 -19 -32 -44 -32 -57 0 -14 -4 -20 -8 -14 -4 7 -15 1
-30 -18 -13 -15 -20 -28 -15 -28 4 0 14 9 21 20 7 12 17 18 22 15 6 -4 14 5
20 19 5 14 15 26 21 26 7 0 9 3 6 7 -4 3 0 15 9 25 14 15 20 16 33 5 14 -11
15 -10 1 8 -8 11 -15 21 -15 22 -1 2 -16 -12 -33 -30z"/>
<path d="M3133 3725 c-3 -9 -3 -18 -1 -21 3 -3 8 4 11 16 6 23 -1 27 -10 5z"/>
<path d="M2977 3633 c-4 -3 -7 -11 -7 -17 0 -6 5 -5 12 2 6 6 9 14 7 17 -3 3
-9 2 -12 -2z"/>
<path d="M2931 3564 c0 -11 3 -14 6 -6 3 7 2 16 -1 19 -3 4 -6 -2 -5 -13z"/>
<path d="M5811 3713 c-1 -6 -4 -19 -8 -29 -4 -11 -3 -15 4 -11 7 5 14 -6 19
-25 4 -18 9 -27 11 -20 3 6 12 12 21 13 10 0 12 3 5 6 -7 2 -16 3 -20 1 -4 -2
-13 15 -19 37 -7 22 -13 35 -13 28z"/>
<path d="M5888 3553 c6 -2 18 -2 25 0 6 3 1 5 -13 5 -14 0 -19 -2 -12 -5z"/>
<path d="M5908 3523 c7 -3 16 -2 19 1 4 3 -2 6 -13 5 -11 0 -14 -3 -6 -6z"/>
<path d="M2431 3254 c0 -11 3 -14 6 -6 3 7 2 16 -1 19 -3 4 -6 -2 -5 -13z"/>
<path d="M6693 3195 c0 -22 2 -30 4 -17 2 12 2 30 0 40 -3 9 -5 -1 -4 -23z"/>
<path d="M6561 3194 c0 -11 3 -14 6 -6 3 7 2 16 -1 19 -3 4 -6 -2 -5 -13z"/>
<path d="M6767 3163 c3 -7 6 -13 8 -13 2 0 5 6 8 13 3 8 -1 14 -8 14 -7 0 -11
-6 -8 -14z"/>
<path d="M2773 3260 c0 -25 2 -35 4 -22 2 12 2 32 0 45 -2 12 -4 2 -4 -23z"/>
<path d="M3308 3323 c39 -2 105 -2 145 0 39 1 7 3 -73 3 -80 0 -112 -2 -72 -3z"/>
<path d="M3618 3323 c12 -2 30 -2 40 0 9 3 -1 5 -23 4 -22 0 -30 -2 -17 -4z"/>
<path d="M3698 3323 c12 -2 32 -2 45 0 12 2 2 4 -23 4 -25 0 -35 -2 -22 -4z"/>
<path d="M3868 3323 c39 -2 105 -2 145 0 39 1 7 3 -73 3 -80 0 -112 -2 -72 -3z"/>
<path d="M4463 3323 c15 -2 39 -2 55 0 15 2 2 4 -28 4 -30 0 -43 -2 -27 -4z"/>
<path d="M4587 3323 c18 -2 50 -2 70 0 21 2 7 4 -32 4 -38 0 -55 -2 -38 -4z"/>
<path d="M5097 3320 c17 -4 49 -4 70 0 32 6 26 8 -32 8 -53 0 -62 -2 -38 -8z"/>
<path d="M5257 3323 c-3 -5 56 -7 131 -5 203 4 218 9 35 10 -89 1 -164 -1
-166 -5z"/>
<path d="M5615 3325 c21 -7 179 -12 160 -4 -11 4 -54 8 -95 8 -41 -1 -70 -2
-65 -4z"/>
<path d="M4318 3303 c18 -2 45 -2 60 0 15 2 0 4 -33 4 -33 0 -45 -2 -27 -4z"/>
<path d="M4321 3026 c-10 -12 -8 -13 8 -9 12 3 21 9 21 14 0 14 -16 11 -29 -5z"/>
<path d="M4158 2998 c5 -5 16 -8 23 -6 8 3 3 7 -10 11 -17 4 -21 3 -13 -5z"/>
<path d="M3050 3050 c20 -13 43 -13 35 0 -3 6 -16 10 -28 10 -18 0 -19 -2 -7
-10z"/>
<path d="M3400 2401 c0 -5 5 -13 10 -16 6 -3 10 -2 10 4 0 5 -4 13 -10 16 -5
3 -10 2 -10 -4z"/>
<path d="M3319 2323 c-13 -16 -12 -17 4 -4 16 13 21 21 13 21 -2 0 -10 -8 -17
-17z"/>
<path d="M4310 2500 c-8 -5 -10 -10 -5 -10 6 0 17 5 25 10 8 5 11 10 5 10 -5
0 -17 -5 -25 -10z"/>
<path d="M2155 1813 c-16 -3 -33 -10 -37 -16 -4 -7 -8 -202 -8 -434 l0 -423
25 -6 c34 -8 177 5 193 18 9 8 12 105 12 423 0 366 -2 414 -16 426 -17 14
-116 21 -169 12z"/>
<path d="M1246 1813 c-3 -4 -6 -112 -6 -241 l0 -234 89 4 c53 2 96 9 105 17
14 12 16 43 16 215 0 159 -3 206 -14 222 -12 16 -28 19 -99 21 -46 1 -87 -1
-91 -4z"/>
<path d="M4790 1641 l0 -184 77 7 c113 10 113 10 113 181 0 176 -2 179 -116
180 l-74 0 0 -184z"/>
</g>
</svg>
